Coordinates
version=1
nRows=10
nColumns=46
inDegrees=yes

Units are S.I. units (second, meters, Newtons, ...)
Angles are in degrees.

endheader
time	pelvis_tilt	pelvis_list	pelvis_rotation	pelvis_tx	pelvis_ty	pelvis_tz	bb_angle	bb_tx	bb_ty	bb_tz	hip_flexion_r	hip_adduction_r	hip_rotation_r	knee_angle_r	knee_angle_r_beta	ankle_angle_r	subtalar_angle_r	mtp_angle_r	crank_angle_r	hip_flexion_l	hip_adduction_l	hip_rotation_l	knee_angle_l	knee_angle_l_beta	ankle_angle_l	subtalar_angle_l	mtp_angle_l	crank_angle_l	lumbar_extension	lumbar_bending	lumbar_rotation	arm_flex_r	arm_add_r	arm_rot_r	elbow_flex_r	pro_sup_r	wrist_flex_r	wrist_dev_r	arm_flex_l	arm_add_l	arm_rot_l	elbow_flex_l	pro_sup_l	wrist_flex_l	wrist_dev_l
      0.00000000	    -16.50291709	     -1.91612678	     -1.51193372	      0.18631174	      1.04184846	     -0.31511467	      0.00000000	      0.50000000	      0.00000000	      0.25000000	     90.08366347	     -1.55290316	      4.54337911	     95.44584610	      1.66584427	     12.44206589	     -3.75540841	      0.00000000	      0.00000000	     51.48327597	     -9.01159727	     -0.12378854	     67.86579293	      1.18448154	    -10.41663142	     -9.03896028	      0.00000000	      0.00000000	    -59.58948611	      0.13885563	      3.07410729	     89.51569902	     -4.85010707	     24.63523822	     40.52842122	     29.08968893	      0.00000000	      0.00000000	     87.02910035	     -2.80385020	     18.69832926	     42.61105491	     35.77523103	      0.00000000	      0.00000000
      0.00500000	    -16.54751692	     -1.99071036	     -1.50508181	      0.18630822	      1.04168887	     -0.31509514	      0.00000000	      0.50000000	      0.00000000	      0.25000000	     90.12145969	     -1.54606235	      4.46299459	     95.44819837	      1.66588533	     12.44490229	     -3.77685561	      0.00000000	      0.00000000	     51.56097208	     -9.07761099	     -0.04465157	     67.91890555	      1.18540853	    -10.24503064	     -8.80125837	      0.00000000	      0.00000000	    -59.50190693	      0.19558764	      3.16068946	     89.51370714	     -4.87966415	     24.64109279	     40.29433808	     29.87045682	      0.00000000	      0.00000000	     87.14158012	     -2.69554266	     18.70083772	     41.93016706	     36.20749719	      0.00000000	      0.00000000
      0.01000000	    -16.40405321	     -2.00796024	     -1.47527731	      0.18635613	      1.04201699	     -0.31519518	      0.00000000	      0.50000000	      0.00000000	      0.25000000	     89.91553189	     -1.57736641	      4.44174989	     95.43904593	      1.66572559	     12.62381782	     -3.73443755	      0.00000000	      0.00000000	     51.38055580	     -9.03970446	     -0.04498847	     67.84712949	      1.18415580	    -10.53185159	     -9.30352301	      0.00000000	      0.00000000	    -59.77597228	      0.22107598	      3.17722570	     89.50185452	     -4.81675162	     23.79113765	     40.75061412	     31.32213492	      0.00000000	      0.00000000	     86.90567233	     -2.65526154	     17.97733302	     43.09824631	     37.14052862	      0.00000000	      0.00000000
      0.01500000	    -16.60536193	     -2.00298227	     -1.53409707	      0.18642263	      1.04160515	     -0.31492474	      0.00000000	      0.50000000	      0.00000000	      0.25000000	     90.10910201	     -1.43858611	      4.51443394	     95.42716231	      1.66551818	     12.61911033	     -3.71073891	      0.00000000	      0.00000000	     51.60676845	     -9.14158921	     -0.07060648	     67.91940015	      1.18541716	    -10.18875690	     -8.68961927	      0.00000000	      0.00000000	    -59.40731702	      0.24733468	      3.07564760	     89.51870274	     -4.57607956	     24.53835054	     39.46926637	     31.87856136	      0.00000000	      0.00000000	     86.99500261	     -2.94032230	     17.72267936	     41.99800777	     36.86866928	      0.00000000	      0.00000000
      0.02000000	    -16.69208088	     -2.13501766	     -1.49033978	      0.18622026	      1.04157368	     -0.31486474	      0.00000000	      0.50000000	      0.00000000	      0.25000000	     90.19380678	     -1.47727968	      4.36934161	     95.46562052	      1.66618940	     12.68271990	     -3.89670676	      0.00000000	      0.00000000	     51.77540333	     -9.18429700	      0.12503751	     67.96395400	      1.18619477	    -10.25512308	     -8.64700935	      0.00000000	      0.00000000	    -59.49143130	      0.36055095	      3.20604295	     89.47969415	     -4.82728034	     23.76458656	     40.78820664	     32.61618694	      0.00000000	      0.00000000	     86.86214036	     -2.89541676	     17.30475637	     43.35082086	     37.41974616	      0.00000000	      0.00000000
      0.02500000	    -16.63332023	     -1.92452658	     -1.48603275	      0.18631436	      1.04180493	     -0.31492020	      0.00000000	      0.50000000	      0.00000000	      0.25000000	     90.15625016	     -1.55891219	      4.56059523	     95.49777346	      1.66675058	     12.75403994	     -3.78145836	      0.00000000	      0.00000000	     51.61672075	     -8.98938919	     -0.06064385	     67.83432942	      1.18393239	    -10.41721974	     -8.95983839	      0.00000000	      0.00000000	    -59.41235246	      0.24148037	      3.05685946	     89.51364366	     -4.71242824	     24.31648203	     39.62728072	     32.44166940	      0.00000000	      0.00000000	     86.97116261	     -2.74834500	     17.77768656	     42.10110094	     37.39554759	      0.00000000	      0.00000000
      0.03000000	    -16.65753119	     -1.92743868	     -1.47174358	      0.18628501	      1.04182453	     -0.31491733	      0.00000000	      0.50000000	      0.00000000	      0.25000000	     90.16915452	     -1.57158483	      4.55921057	     95.49371931	      1.66667982	     12.78753522	     -3.77891969	      0.00000000	      0.00000000	     51.65313758	     -8.97080622	     -0.02558904	     67.81749821	      1.18363863	    -10.48550647	     -8.97568278	      0.00000000	      0.00000000	    -59.39435091	      0.24380641	      3.06033074	     89.51006796	     -4.76331063	     24.28922332	     39.60509083	     32.86952707	      0.00000000	      0.00000000	     87.02052179	     -2.73949501	     17.84135446	     41.88802101	     37.76964616	      0.00000000	      0.00000000
      0.03500000	    -16.67385123	     -1.96064343	     -1.46469369	      0.18625593	      1.04182617	     -0.31488546	      0.00000000	      0.50000000	      0.00000000	      0.25000000	     90.17255156	     -1.55477601	      4.53177507	     95.49378994	      1.66668105	     12.80219464	     -3.77043429	      0.00000000	      0.00000000	     51.68885465	     -9.00129032	      0.00807782	     67.81510861	      1.18359693	    -10.50331464	     -8.88802643	      0.00000000	      0.00000000	    -59.36930646	      0.26671363	      3.03351296	     89.51805438	     -4.77712723	     24.50206357	     39.55514381	     32.71957365	      0.00000000	      0.00000000	     86.99790785	     -2.77324472	     18.04533746	     41.70766252	     37.78907268	      0.00000000	      0.00000000
      0.04000000	    -16.68726573	     -1.93201356	     -1.44408385	      0.18626071	      1.04187035	     -0.31495696	      0.00000000	      0.50000000	      0.00000000	      0.25000000	     90.18774669	     -1.60198921	      4.54918167	     95.50112185	      1.66680902	     12.83544204	     -3.76393566	      0.00000000	      0.00000000	     51.70248795	     -8.95522637	     -0.01263251	     67.78774960	      1.18311942	    -10.65424361	     -9.00281447	      0.00000000	      0.00000000	    -59.37677766	      0.28231769	      2.98071956	     89.52061648	     -4.67218795	     24.26995662	     39.37193009	     33.47770023	      0.00000000	      0.00000000	     86.91421717	     -2.82888971	     17.81405659	     42.11523577	     38.34672966	      0.00000000	      0.00000000
      0.04500000	    -16.69832790	     -1.95367879	     -1.46601973	      0.18617194	      1.04188403	     -0.31490390	      0.00000000	      0.50000000	      0.00000000	      0.25000000	     90.18245821	     -1.54832153	      4.54423687	     95.47096908	      1.66628275	     12.85338125	     -3.82980207	      0.00000000	      0.00000000	     51.73535676	     -8.99027659	      0.01709956	     67.79733538	      1.18328673	    -10.61596512	     -8.85339248	      0.00000000	      0.00000000	    -59.36644087	      0.24395037	      3.15038496	     89.50831526	     -5.05297035	     24.78690191	     39.87065817	     32.86322142	      0.00000000	      0.00000000	     87.18244678	     -2.67580972	     18.82485280	     41.18360236	     38.44429722	      0.00000000	      0.00000000
